<svg xmlns="http://www.w3.org/2000/svg" version="1.1" xmlns:xlink="http://www.w3.org/1999/xlink" width="512" height="512"><svg width="512" height="512" viewBox="0 0 512 512" fill="none" xmlns="http://www.w3.org/2000/svg">
<path d="M186.978 302.189C178.073 295.683 145.868 277.116 126.813 270.472C130.411 286.341 157.405 303.385 161.233 321.205L157.707 363.318C157.523 365.512 156.515 367.554 154.886 369.034L152.629 371.086C150.269 373.23 147.73 375.169 145.04 376.881L134.247 383.749C130.667 386.027 128.044 389.64 127.298 393.817C126.633 397.543 126.882 400.829 127.416 403.422C128.223 407.345 131.078 410.48 134.826 411.891C147.992 416.848 159.266 412.201 165.095 409.904C168.466 408.575 171.276 404.934 171.974 401.392L175.202 382.322L185.535 366.731C187.258 361.252 188.828 336.986 188.818 325.611C188.803 308.797 186.978 302.189 186.978 302.189Z" fill="#1A171B"></path>
<path d="M105.362 232.535C105.362 232.535 105.398 232.535 105.469 232.529C105.469 232.529 105.469 232.535 105.474 232.535L105.51 232.524C106.481 232.601 111.03 233.47 119.457 232.535C128.159 231.569 131.448 229.561 131.448 229.561C110.76 193.28 112.565 157.283 112.824 145.847C99.1512 185.661 101.723 214.196 105.362 232.535Z" fill="#1A171B"></path>
<path d="M313.136 385.811C316.063 381.771 315.95 378.009 315.65 372.069C315.348 366.088 311.345 334.951 309.755 328.318C306.364 314.132 285.784 275.762 285.784 275.762H331.179C331.773 277.566 352.242 309.764 352.242 318.849C352.242 328.003 343.454 379.213 341.752 385.485L331.531 401.312L328.199 420.299C327.501 423.841 324.894 427.174 321.49 428.63C316.68 430.689 304.321 435.838 291.155 430.88C287.407 429.469 284.553 426.334 283.745 422.411C283.211 419.818 282.962 416.532 283.627 412.806C284.374 408.629 286.997 405.017 290.577 402.738L301.369 395.87C301.369 395.87 310.111 389.884 313.136 385.811Z" fill="#1A171B"></path>
<path d="M438.744 228.379C432.914 132.994 347.054 75.7821 229.25 76.0006C119.242 76.204 35.6705 159.562 36.001 260.802C36.2142 325.537 53.7295 334.513 56.1897 352.954C57.1911 360.461 53.1148 372.904 54.36 383.258C55.5901 393.474 65.1965 399.299 72.3989 396.082C76.1247 394.419 78.6509 392.29 79.7893 388.386C79.7893 388.386 86.0107 391.858 92.2065 387.893C98.4736 383.883 97.2744 377.631 97.2744 377.631C98.8192 377.921 113.473 377.331 110.83 363.561C108.878 353.401 97.5487 349.33 89.6093 345.507C76.6839 339.276 63.6973 316.861 62.0148 270.851C60.0984 218.345 93.157 189.454 93.157 189.454C96.2628 154.525 116.528 129.197 121.372 130.727C122.028 130.936 121.774 132.11 121.728 132.328C121.204 134.946 118.287 150.606 121.987 176.402C121.987 176.402 134.948 172.925 153.805 176.046C166.558 178.161 176.231 183.015 180.129 185.215C180.953 185.683 181.99 185.114 182.015 184.163C182.254 173.362 185.853 163.583 193.065 156.37C203.244 146.191 219.868 141.556 236.031 144.927C236.931 145.115 237.722 144.347 237.531 143.449C236.326 137.81 233.69 120.956 241.784 108.399C251.69 93.0333 279.835 90.8882 280.196 94.9395C280.755 101.222 256.636 97.3231 248.204 114.107C241.718 127.012 248.981 150.058 251.767 157.844C252.128 158.851 251.142 159.822 250.146 159.44C231.009 152.05 214.418 153.28 204.405 160.554C190.693 170.509 191.119 189.044 191.409 200.927C191.433 201.92 190.365 202.523 189.512 202.013C178.973 195.701 165.751 190.736 153.805 188.712C136.458 185.774 125.362 189.028 124.503 189.19C126.927 203.046 136.839 220.124 146.252 234.966C146.252 234.966 136.351 239.922 121.987 241.218C105.687 242.684 93.6931 241.114 88.3789 241.91C85.8237 242.292 85.5759 244.022 85.7034 245.097C85.7382 245.391 85.8654 246.032 86.2764 246.335C96.68 254.009 174.207 272.069 202.621 304.494C204.379 306.497 212.419 331.776 214.184 341.249C215.484 348.226 218.11 367.714 214.857 380.505C214.006 383.124 210.958 390.933 208.169 392.356L192.622 401.751C187.394 404.417 183.935 409.737 183.903 415.606C183.893 417.544 184.053 419.298 184.28 420.799C184.788 424.163 186.779 427.168 189.786 428.759C205.169 436.895 220.076 429.976 225.28 427.043C227.903 425.565 229.71 423.058 230.152 420.101L232.397 403.538L243.122 384.592C244.451 379.7 247.579 353.757 246.013 326.645C244.875 307.076 252.219 301.305 252.209 300.199C252.127 291.057 240.193 269.438 239.964 267.293L338.425 267.298L365.164 309.346C365.471 309.828 365.833 310.255 366.263 310.632C370.304 314.181 392.308 333.581 394.259 336.912C395.559 343.889 399.718 370.612 396.465 383.403C395.613 386.021 392.566 393.83 389.777 395.253L374.23 404.648C369.002 407.315 365.543 412.635 365.511 418.504C365.501 420.441 365.661 422.196 365.887 423.697C366.396 427.061 368.387 430.065 371.394 431.656C386.777 439.792 402.741 431.212 406.698 429.109C409.234 427.761 411.127 425.124 411.569 422.167L414.005 406.435L424.73 381.664C425.894 379.148 431.125 332.216 429.28 327.636C427.801 323.972 407.851 290.827 408.222 288.514C425.046 184.178 378.137 135.033 378.137 135.033C378.137 135.033 395.215 143.018 406.427 159.624C417.102 175.441 411.495 182.115 412.603 183.569C413.711 185.027 418.926 180.427 419.724 181.871C420.522 183.319 413.478 203.61 414.418 204.8C415.353 205.984 423.292 200.332 424.589 202.162C425.885 203.991 414.677 225.665 416.054 227.159C417.432 228.658 425.61 223.631 426.708 225.324C427.806 227.021 417.162 249.574 418.337 251.252C419.511 252.924 428.253 246.194 429.29 247.582C430.327 248.974 420.959 269.3 422.133 271.253C423.313 273.204 432.995 266.627 433.997 268.406C435.003 270.175 429.696 292.143 431.654 293.226C433.6 294.313 441.097 285.932 442.882 286.109C444.671 286.287 447.202 312.566 449.423 312.637C451.644 312.713 456.707 300.707 458.618 300.286C460.539 299.848 471.325 311.711 472.794 312.571C475.132 313.948 475.788 313.114 475.91 312.642C478.039 304.179 441.753 277.56 438.744 228.379ZM158.2 151.683C157.684 151.996 157.116 152.144 156.556 152.144C155.492 152.144 154.45 151.606 153.855 150.631L152.667 148.684C151.021 149.273 149.337 149.61 147.7 149.61C147.219 149.61 146.742 149.583 146.273 149.531C143.148 149.178 140.679 147.692 139.326 145.346C137.971 143.001 137.905 140.115 139.173 137.234C140.368 134.518 141.88 132.776 144.566 130.975L144.893 130.78C146.863 129.736 149.187 130.813 150.108 132.348L159.252 147.338C160.16 148.829 159.689 150.774 158.2 151.683Z" fill="#1A171B"></path>
</svg><style>@media (prefers-color-scheme: light) { :root { filter: none; } }
@media (prefers-color-scheme: dark) { :root { filter: invert(100%); } }
</style></svg>